<svg width="406" height="127" viewBox="0 0 406 127" fill="none" xmlns="http://www.w3.org/2000/svg">
<path d="M88.8636 53.4545C88.8636 63.697 86.8939 72.3788 82.9545 79.5C79.0152 86.6212 73.6818 92.0303 66.9545 95.7273C60.2576 99.4242 52.7424 101.273 44.4091 101.273C36.0455 101.273 28.5152 99.4091 21.8182 95.6818C15.1212 91.9545 9.80303 86.5455 5.86364 79.4545C1.95454 72.3333 -1.43051e-06 63.6667 -1.43051e-06 53.4545C-1.43051e-06 43.2121 1.95454 34.5303 5.86364 27.4091C9.80303 20.2879 15.1212 14.8788 21.8182 11.1818C28.5152 7.48485 36.0455 5.63636 44.4091 5.63636C52.7424 5.63636 60.2576 7.48485 66.9545 11.1818C73.6818 14.8788 79.0152 20.2879 82.9545 27.4091C86.8939 34.5303 88.8636 43.2121 88.8636 53.4545ZM65.8636 53.4545C65.8636 47.3939 65 42.2727 63.2727 38.0909C61.5758 33.9091 59.1212 30.7424 55.9091 28.5909C52.7273 26.4394 48.8939 25.3636 44.4091 25.3636C39.9545 25.3636 36.1212 26.4394 32.9091 28.5909C29.697 30.7424 27.2273 33.9091 25.5 38.0909C23.803 42.2727 22.9545 47.3939 22.9545 53.4545C22.9545 59.5151 23.803 64.6364 25.5 68.8182C27.2273 73 29.697 76.1667 32.9091 78.3182C36.1212 80.4697 39.9545 81.5455 44.4091 81.5455C48.8939 81.5455 52.7273 80.4697 55.9091 78.3182C59.1212 76.1667 61.5758 73 63.2727 68.8182C65 64.6364 65.8636 59.5151 65.8636 53.4545ZM102 126.182V30.1818H124V42.1364H124.682C125.591 40.0151 126.879 37.9697 128.545 36C130.242 34.0303 132.394 32.4242 135 31.1818C137.636 29.9091 140.788 29.2727 144.455 29.2727C149.303 29.2727 153.833 30.5455 158.045 33.0909C162.288 35.6364 165.712 39.5606 168.318 44.8636C170.924 50.1667 172.227 56.9242 172.227 65.1364C172.227 73.0455 170.97 79.6667 168.455 85C165.97 90.3333 162.606 94.3333 158.364 97C154.152 99.6667 149.47 101 144.318 101C140.803 101 137.758 100.424 135.182 99.2727C132.606 98.1212 130.439 96.6061 128.682 94.7273C126.955 92.8485 125.621 90.8333 124.682 88.6818H124.227V126.182H102ZM123.773 65.0909C123.773 68.8485 124.273 72.1212 125.273 74.9091C126.303 77.697 127.773 79.8636 129.682 81.4091C131.621 82.9242 133.939 83.6818 136.636 83.6818C139.364 83.6818 141.682 82.9242 143.591 81.4091C145.5 79.8636 146.939 77.697 147.909 74.9091C148.909 72.1212 149.409 68.8485 149.409 65.0909C149.409 61.3333 148.909 58.0758 147.909 55.3182C146.939 52.5606 145.5 50.4242 143.591 48.9091C141.712 47.3939 139.394 46.6364 136.636 46.6364C133.909 46.6364 131.591 47.3788 129.682 48.8636C127.773 50.3485 126.303 52.4697 125.273 55.2273C124.273 57.9848 123.773 61.2727 123.773 65.0909ZM216.511 101.318C209.208 101.318 202.905 99.8788 197.602 97C192.33 94.0909 188.269 89.9545 185.42 84.5909C182.602 79.197 181.193 72.7879 181.193 65.3636C181.193 58.1515 182.617 51.8485 185.466 46.4545C188.314 41.0303 192.33 36.8182 197.511 33.8182C202.693 30.7879 208.799 29.2727 215.83 29.2727C220.799 29.2727 225.345 30.0455 229.466 31.5909C233.587 33.1364 237.148 35.4242 240.148 38.4545C243.148 41.4848 245.481 45.2273 247.148 49.6818C248.814 54.1061 249.648 59.1818 249.648 64.9091V70.4545H188.966V57.5455H228.966C228.936 55.1818 228.375 53.0758 227.284 51.2273C226.193 49.3788 224.693 47.9394 222.784 46.9091C220.905 45.8485 218.739 45.3182 216.284 45.3182C213.799 45.3182 211.572 45.8788 209.602 47C207.633 48.0909 206.072 49.5909 204.92 51.5C203.769 53.3788 203.163 55.5151 203.102 57.9091V71.0455C203.102 73.8939 203.663 76.3939 204.784 78.5455C205.905 80.6667 207.496 82.3182 209.557 83.5C211.617 84.6818 214.072 85.2727 216.92 85.2727C218.89 85.2727 220.678 85 222.284 84.4545C223.89 83.9091 225.269 83.1061 226.42 82.0455C227.572 80.9848 228.436 79.6818 229.011 78.1364L249.42 78.7273C248.572 83.303 246.708 87.2879 243.83 90.6818C240.981 94.0455 237.239 96.6667 232.602 98.5455C227.966 100.394 222.602 101.318 216.511 101.318ZM283.227 60.1818V100H261V30.1818H282.136V43H282.909C284.455 38.7273 287.091 35.3788 290.818 32.9545C294.545 30.5 298.985 29.2727 304.136 29.2727C309.045 29.2727 313.303 30.3788 316.909 32.5909C320.545 34.7727 323.364 37.8333 325.364 41.7727C327.394 45.6818 328.394 50.2576 328.364 55.5V100H306.136V59.8636C306.167 55.9848 305.182 52.9545 303.182 50.7727C301.212 48.5909 298.47 47.5 294.955 47.5C292.621 47.5 290.561 48.0152 288.773 49.0455C287.015 50.0455 285.652 51.4848 284.682 53.3636C283.742 55.2424 283.258 57.5151 283.227 60.1818Z" fill="#A9A9A9"/>
<path d="M365.32 40H345.32V0H365.32V40ZM405.32 40H385.32V0H405.32V40ZM385.32 40V60H365.32V40H385.32ZM365.32 100H345.32V60H365.32V100ZM405.32 100H385.32V60H405.32V100Z" fill="white"/>
</svg>
